# xmcd CD database file
#
# Track frame offsets:
#	150
#	16242
#	37222
#
# Disc length: 697 seconds
#
# Revision: 0
# Processed by: cddbd v1.5.2PL0 Copyright (c) Steve Scherf et al.
# Submitted via: CDex 1.70beta2
#
DISCID=1e02b703
DTITLE=Peter White - Perfect Moment - The Bonus Tracks
DYEAR=1998
DGENRE=Jazz
TTITLE0=Moonlight Montreal
TTITLE1=Danny Bianco
TTITLE2=End Of The Day
EXTD=YEAR: 1998
EXTT0=
EXTT1=
EXTT2=
PLAYORDER=
